<svg width="20" height="20" viewBox="0 0 20 20" fill="none" xmlns="http://www.w3.org/2000/svg">
<path d="M7.57246 16.781C7.71118 17.1727 7.28685 17.5317 6.92781 17.3195L4.35741 15.8589C3.89229 15.5896 3.6067 14.945 3.70462 14.4227L4.47167 10.612C4.56143 10.1632 5.18158 10.1224 5.33662 10.5467L7.57246 16.781Z" fill="#F53838"/>
<path d="M15.2266 15.8589L12.648 17.3277C12.289 17.5317 11.8647 17.1808 12.0034 16.7891L14.2474 10.4978C14.4024 10.0734 15.0226 10.1142 15.1123 10.563L15.8876 14.4227C15.9773 14.945 15.6917 15.5896 15.2266 15.8589Z" fill="#F53838"/>
<path d="M13.9372 6.18113C14.1331 6.42593 14.1902 6.75233 14.0841 7.04609L10.2163 17.8581C10.0776 18.2579 9.51452 18.2579 9.3758 17.8581L5.50797 7.05425C5.40189 6.76049 5.45901 6.43409 5.65485 6.18929L8.77197 2.35409C9.33501 1.67681 10.2653 1.67681 10.8365 2.35409L13.9372 6.18113Z" fill="#F53838"/>
</svg>
