<svg width="22" height="22" viewBox="0 0 22 22" fill="none" xmlns="http://www.w3.org/2000/svg">
<rect x="0.0488281" y="0.143292" width="20.9817" height="20.9817" rx="10.4909" fill="#F53838" fill-opacity="0.1"/>
<path d="M12.9158 4.96342H8.16371C6.09957 4.96342 4.86902 6.19396 4.86902 8.25811V13.0045C4.86902 15.0743 6.09957 16.3049 8.16371 16.3049H12.9101C14.9743 16.3049 16.2048 15.0743 16.2048 13.0102V8.25811C16.2105 6.19396 14.9799 4.96342 12.9158 4.96342ZM12.9215 14.1784C12.2807 14.1784 11.759 13.6566 11.759 13.0159C11.759 12.6416 11.9404 12.3127 12.2183 12.0972C11.9801 11.4734 11.3847 11.0424 10.7155 11.0651L9.54737 11.0708H9.5417C9.19579 11.0708 8.86688 10.9687 8.58902 10.7929V11.9384C9.01999 12.1085 9.32621 12.5282 9.32621 13.0159C9.32621 13.6566 8.80451 14.1784 8.16371 14.1784C7.52292 14.1784 7.00121 13.6566 7.00121 13.0159C7.00121 12.5225 7.30743 12.1085 7.73841 11.9384V9.47165C7.30743 9.27317 7.00121 8.8422 7.00121 8.3375C7.00121 7.65134 7.56262 7.08994 8.24877 7.08994C8.93493 7.08994 9.49634 7.65134 9.49634 8.3375C9.49634 8.89323 9.12774 9.35823 8.62304 9.52268C8.73646 9.93665 9.11073 10.2259 9.5417 10.2259C9.5417 10.2259 9.5417 10.2259 9.54737 10.2259L10.7155 10.2202C10.7212 10.2202 10.7212 10.2202 10.7269 10.2202C11.7703 10.2202 12.706 10.8837 13.0462 11.8704C13.6303 11.9327 14.0896 12.4204 14.0896 13.0215C14.084 13.6566 13.5623 14.1784 12.9215 14.1784Z" fill="#F53838"/>
</svg>
