<svg width="21" height="22" viewBox="0 0 21 22" fill="none" xmlns="http://www.w3.org/2000/svg">
<rect x="0.0244141" y="0.143292" width="20.9817" height="20.9817" rx="10.4909" fill="#F53838" fill-opacity="0.1"/>
<path d="M15.4034 8.62104C14.808 6.00116 12.5227 4.82165 10.5153 4.82165C10.5153 4.82165 10.5153 4.82165 10.5096 4.82165C8.50783 4.82165 6.21686 5.99549 5.62143 8.61537C4.95796 11.5415 6.74991 14.0196 8.37174 15.579C8.97283 16.1574 9.74405 16.4466 10.5153 16.4466C11.2865 16.4466 12.0577 16.1574 12.6531 15.579C14.275 14.0196 16.0669 11.5471 15.4034 8.62104ZM10.5153 11.4621C9.52857 11.4621 8.72899 10.6625 8.72899 9.67579C8.72899 8.68909 9.52857 7.88951 10.5153 7.88951C11.502 7.88951 12.3016 8.68909 12.3016 9.67579C12.3016 10.6625 11.502 11.4621 10.5153 11.4621Z" fill="#F53838"/>
</svg>
