<svg width="16" height="15" viewBox="0 0 16 15" fill="none" xmlns="http://www.w3.org/2000/svg">
<path d="M9.29997 1.12472L10.62 3.76472C10.8 4.12472 11.28 4.48472 11.68 4.54472L14.07 4.94472C15.6 5.20472 15.96 6.30472 14.86 7.40472L13 9.27472C12.69 9.58472 12.51 10.1947 12.61 10.6347L13.14 12.9447C13.56 14.7647 12.59 15.4747 10.98 14.5247L8.73997 13.1947C8.32997 12.9547 7.66997 12.9547 7.25997 13.1947L5.00997 14.5147C3.39997 15.4647 2.42997 14.7547 2.84997 12.9347L3.37997 10.6247C3.47997 10.1947 3.29997 9.58472 2.98997 9.26472L1.13997 7.41472C0.0399733 6.31472 0.399973 5.20472 1.92997 4.95472L4.31997 4.55472C4.71997 4.48472 5.19997 4.13472 5.37997 3.77472L6.69997 1.13472C7.40997 -0.30528 8.58997 -0.30528 9.29997 1.12472Z" fill="#F3CC40"/>
</svg>
